<svg id="Capa_1" enable-background="new 0 0 512 512" height="512" viewBox="0 0 512 512" width="512" xmlns="http://www.w3.org/2000/svg"><g><g><path d="m120.646 386.029-8.432 1.956c-34.712 8.051-60.942 36.553-66.09 71.812l-7.621 52.203h217.497l57.65-125.971z" fill="#fb254a"/><path d="m465.875 459.797c-5.147-35.26-31.378-63.761-66.09-71.812l-8.432-1.956h-135.353v125.971h217.497z" fill="#b6283e"/></g><g><circle cx="415.127" cy="36.65" fill="#e2dff4" r="36.65"/><g><path d="m133.523 285.236-16.972 66.995c-11.002 43.431 8.846 88.794 48.211 110.186l91.238 49.583 64.433-226.764z" fill="#f6f6f6"/><path d="m395.449 352.231-16.972-66.995h-122.477v226.764l91.238-49.582c39.365-21.393 59.213-66.756 48.211-110.187z" fill="#e2dff4"/></g><g><path d="m133.523 193.037v92.199c0 24.075 19.517 43.591 43.591 43.591h40.266c21.329 0 38.62-17.291 38.62-38.62l61.239-97.17z" fill="#ffddce"/><path d="m256 193.037v97.17c0 21.329 17.291 38.62 38.62 38.62h40.266c24.075 0 43.591-19.516 43.591-43.591v-92.199z" fill="#ffccbd"/></g></g><g><path d="m227.472 36.649c-51.887 0-93.95 42.063-93.95 93.95v53.995h170.161l-47.683-147.945z" fill="#fb254a"/><path d="m256 36.649h122.477v147.945h-122.477z" fill="#b6283e"/></g><g><path d="m116.909 163.757v63.834h139.091l37.832-34.554-37.832-29.28z" fill="#f6f6f6"/><path d="m256 163.757h139.091v63.833h-139.091z" fill="#e2dff4"/></g></g></svg>