<svg id="Capa_1" enable-background="new 0 0 512 512" height="512" viewBox="0 0 512 512" width="512" xmlns="http://www.w3.org/2000/svg"><g><g><path d="m120.646 386.029-8.432 1.956c-34.712 8.051-60.942 36.553-66.09 71.812l-7.621 52.203h217.497l57.65-125.971z" fill="#3d4478"/><path d="m465.875 459.797c-5.147-35.26-31.378-63.761-66.09-71.812l-8.432-1.956h-135.353v125.971h217.497z" fill="#1f2e52"/></g><g><path d="m133.523 260.191-16.972 66.995c-11.002 43.431 8.846 88.794 48.211 110.186l91.238 49.584 64.433-226.764h-186.91z" fill="#f6f6f6"/><path d="m395.449 327.187-16.972-66.995h-122.477v226.764l91.238-49.582c39.365-21.394 59.213-66.756 48.211-110.187z" fill="#e2dff4"/></g><g><path d="m133.523 167.993v92.199c0 24.075 19.517 43.591 43.591 43.591h40.266c21.329 0 38.62-17.291 38.62-38.62l61.239-97.17z" fill="#ffddce"/><path d="m256 167.993v97.17c0 21.329 17.291 38.62 38.62 38.62h40.266c24.075 0 43.591-19.516 43.591-43.591v-92.199z" fill="#ffccbd"/></g><g><path d="m253.302 0-65.203 44.045-70.883 123.948h182.961l-44.177-167.993z" fill="#1f2e52"/><path d="m400.873 57.145-127.692-57.145h-17.181v167.993h135.806l-31.649-76.091 40.716-18.024z" fill="#131e3b"/></g><g><path d="m305.631 80.855 2.191 29.92 93.051-6.816v-30.081z" fill="#1f2e52"/></g><g><path d="m53.625 152.993v30h202.375l24.307-15-24.307-15z" fill="#3d4478"/><path d="m256 152.993h202.375v30h-202.375z" fill="#1f2e52"/></g></g></svg>